<?xml version="1.0" encoding="utf-8"?>
<!-- Generator: Adobe Illustrator 16.0.0, SVG Export Plug-In . SVG Version: 6.00 Build 0)  -->
<!DOCTYPE svg PUBLIC "-//W3C//DTD SVG 1.1//EN" "http://www.w3.org/Graphics/SVG/1.1/DTD/svg11.dtd">
<svg version="1.1" id="Layer_1" xmlns="http://www.w3.org/2000/svg" xmlns:xlink="http://www.w3.org/1999/xlink" x="0px" y="0px"
	 width="256px" height="256px" viewBox="0 0 256 256" enable-background="new 0 0 256 256" xml:space="preserve">
<g>
	<path fill="#4A4A4A" d="M73,0H8C3.582,0,0,3.582,0,8v63c0,4.418,3.582,8,8,8h65c4.418,0,8-3.582,8-8V8C81,3.582,77.418,0,73,0z
		 M16,63V16h46.848c-0.517,0.319-1.008,0.696-1.456,1.144L42.015,36.522l-6.026-6.026c-3.124-3.124-8.189-3.124-11.313,0
		c-3.125,3.124-3.125,8.189,0,11.313l11.683,11.683c1.5,1.5,3.535,2.343,5.657,2.343s4.156-0.843,5.656-2.343L65,36.163V63H16z"/>
	<path fill="#4A4A4A" d="M73,90H8c-4.418,0-8,3.582-8,8v63c0,4.418,3.582,8,8,8h65c4.418,0,8-3.582,8-8V98
		C81,93.582,77.418,90,73,90z M16,153v-47h46.847c-0.516,0.319-1.007,0.695-1.455,1.143l-19.377,19.378l-6.026-6.026
		c-3.124-3.124-8.189-3.124-11.313,0c-3.125,3.124-3.125,8.188,0,11.313l11.683,11.684c1.5,1.5,3.535,2.343,5.657,2.343
		s4.156-0.843,5.655-2.343L65,126.162V153H16z"/>
	<path fill="#4A4A4A" d="M73,178H8c-4.418,0-8,3.582-8,8v63c0,4.418,3.582,8,8,8h65c4.418,0,8-3.582,8-8v-63
		C81,181.582,77.418,178,73,178z M16,241v-47h46.847c-0.516,0.319-1.007,0.695-1.455,1.143l-19.377,19.379l-6.026-6.025
		c-3.124-3.123-8.189-3.123-11.313,0c-3.125,3.125-3.124,8.189,0,11.314l11.683,11.682c1.562,1.563,3.61,2.343,5.657,2.343
		s4.094-0.78,5.655-2.343L65,214.162V241H16z"/>
	<path fill="#4A4A4A" d="M114,18h134c4.418,0,8-3.582,8-8s-3.582-8-8-8H114c-4.418,0-8,3.582-8,8S109.582,18,114,18z"/>
	<path fill="#4A4A4A" d="M248,92H114c-4.418,0-8,3.582-8,8s3.582,8,8,8h134c4.418,0,8-3.582,8-8S252.418,92,248,92z"/>
	<path fill="#4A4A4A" d="M248,182H114c-4.418,0-8,3.582-8,8s3.582,8,8,8h134c4.418,0,8-3.582,8-8S252.418,182,248,182z"/>
	<path fill="#4A4A4A" d="M114,48h92c4.418,0,8-3.582,8-8s-3.582-8-8-8h-92c-4.418,0-8,3.582-8,8S109.582,48,114,48z"/>
	<path fill="#4A4A4A" d="M114,138h92c4.418,0,8-3.582,8-8s-3.582-8-8-8h-92c-4.418,0-8,3.582-8,8S109.582,138,114,138z"/>
	<path fill="#4A4A4A" d="M206,212h-92c-4.418,0-8,3.582-8,8s3.582,8,8,8h92c4.418,0,8-3.582,8-8S210.418,212,206,212z"/>
	<path fill="#4A4A4A" d="M114,76h55c4.418,0,8-3.582,8-8s-3.582-8-8-8h-55c-4.418,0-8,3.582-8,8S109.582,76,114,76z"/>
	<path fill="#4A4A4A" d="M114,166h55c4.418,0,8-3.582,8-8s-3.582-8-8-8h-55c-4.418,0-8,3.582-8,8S109.582,166,114,166z"/>
	<path fill="#4A4A4A" d="M169,240h-55c-4.418,0-8,3.582-8,8s3.582,8,8,8h55c4.418,0,8-3.582,8-8S173.418,240,169,240z"/>
</g>
</svg>
